<svg enable-background="new 0 0 32 32" height="512" viewBox="0 0 32 32" width="512" xmlns="http://www.w3.org/2000/svg"><g id="Layer_1"><g fill="rgb(0,0,0)"><path d="m25.35 4h-3.35v-.72c0-1.257-1.022-2.28-2.28-2.28h-7.44c-1.257 0-2.28 1.023-2.28 2.28v.72h-3.35c-1.461 0-2.65 1.189-2.65 2.65v21.7c0 1.461 1.189 2.65 2.65 2.65h18.7c1.462 0 2.65-1.189 2.65-2.65v-21.7c0-1.461-1.188-2.65-2.65-2.65zm-13.35-.72c0-.157.123-.28.28-.28h7.439c.158 0 .281.123.281.28v2.44c0 .157-.123.28-.28.28h-7.44c-.157 0-.28-.123-.28-.28zm14 25.07c0 .358-.292.65-.65.65h-18.7c-.358 0-.65-.292-.65-.65v-21.7c0-.358.292-.65.65-.65h3.378c.14 1.124 1.091 2 2.252 2h7.439c1.162 0 2.112-.876 2.252-2h3.378c.359 0 .651.292.651.65z"/><path d="m13.5 13h5c.552 0 1-.448 1-1s-.448-1-1-1h-5c-.552 0-1 .448-1 1s.448 1 1 1z"/><path d="m21 23h-10c-.552 0-1 .448-1 1s.448 1 1 1h10c.553 0 1-.448 1-1s-.447-1-1-1z"/><path d="m21 19h-10c-.552 0-1 .448-1 1s.448 1 1 1h10c.553 0 1-.448 1-1s-.447-1-1-1z"/><path d="m21 15h-10c-.552 0-1 .448-1 1s.448 1 1 1h10c.553 0 1-.448 1-1s-.447-1-1-1z"/></g></g></svg>