<svg id="Capa_1" enable-background="new 0 0 506.577 506.577" height="512" viewBox="0 0 506.577 506.577" width="512" xmlns="http://www.w3.org/2000/svg"><g><g><path d="m151.923 108.921c0-25.864-21.042-46.906-46.906-46.906s-46.907 21.042-46.907 46.906 21.042 46.906 46.906 46.906 46.907-21.042 46.907-46.906zm-46.907 17.257c-9.516 0-17.257-7.741-17.257-17.257s7.741-17.257 17.257-17.257 17.257 7.741 17.257 17.257-7.741 17.257-17.257 17.257z"/><path d="m506.565 247.645c-.234-5.841-3.88-10.999-9.307-13.17l-157.581-63.033c-4.568-1.826-9.743-1.269-13.817 1.488s-6.514 7.356-6.514 12.276v217.428c-18.118 5.355-32.166 20.26-36.296 38.866h-209.69c-15.806 0-28.666-12.86-28.666-28.666s12.86-28.666 28.666-28.666h134.144c30.5 0 55.314-24.814 55.314-55.314s-24.814-55.314-55.314-55.314h-76.346l63.781-106.634c10.81-18.072 16.524-38.756 16.524-59.814 0-58.3-47.431-105.731-105.731-105.731s-105.732 47.43-105.732 105.73v.378c0 20.775 5.572 41.22 16.113 59.122l76.129 129.294c2.375 3.818 6.752 7.34 12.724 7.303h102.539c14.152 0 25.665 11.513 25.665 25.665s-11.513 25.665-25.665 25.665h-134.145c-32.155 0-58.316 26.161-58.316 58.316s26.161 58.316 58.316 58.316h211.742c7.437 19.878 26.62 34.07 49.061 34.07 28.875 0 52.366-23.491 52.366-52.366 0-23.723-15.861-43.8-37.533-50.213v-66.99l149.347-74.13c5.236-2.601 8.457-8.035 8.222-13.876zm-464.903-96.098c-7.859-13.348-12.013-28.59-12.013-44.079v-.378c0-41.951 34.13-76.082 76.082-76.082s76.082 34.131 76.082 76.082c0 15.7-4.26 31.12-12.319 44.595l-64.377 107.631zm315.217 301.306c0 12.526-10.192 22.716-22.716 22.716s-22.716-10.191-22.716-22.716c0-12.511 10.167-22.691 22.672-22.715.018 0 .036.003.053.003.016 0 .032-.002.048-.002 12.499.029 22.659 10.206 22.659 22.714zm-7.883-150.305v-95.445l106.479 42.592z"/></g></g></svg>