<svg id="Layer_1" data-name="Layer 1" xmlns="http://www.w3.org/2000/svg" viewBox="0 0 512 448"><defs><style>.cls-1{fill:#fc0;}</style></defs><path class="cls-1" d="M394.67,256a10.78,10.78,0,0,0-7.56,3.11L280.45,365.78A10.68,10.68,0,0,0,288,384h53.33V490.67A21.36,21.36,0,0,0,362.67,512h64A21.36,21.36,0,0,0,448,490.67V384h53.33a10.68,10.68,0,0,0,7.56-18.22L402.22,259.11A10.74,10.74,0,0,0,394.67,256ZM313.75,362.67l80.92-80.92,80.91,80.92H437.33a10.67,10.67,0,0,0-10.66,10.66V490.67h-64V373.33A10.67,10.67,0,0,0,352,362.67Z" transform="translate(0 -64)"/><path class="cls-1" d="M245.33,448h-192A53.39,53.39,0,0,1,0,394.67V117.33A53.39,53.39,0,0,1,53.33,64H458.67A53.39,53.39,0,0,1,512,117.33V330.67a10.67,10.67,0,0,1-21.33,0V117.33a32,32,0,0,0-32-32H53.33a32,32,0,0,0-32,32V394.67a32,32,0,0,0,32,32h192a10.67,10.67,0,1,1,0,21.33Z" transform="translate(0 -64)"/><path class="cls-1" d="M160,341.33H10.67A10.67,10.67,0,0,1,0,330.67V181.33a10.67,10.67,0,0,1,10.67-10.66H160A53.39,53.39,0,0,1,213.33,224v64A53.39,53.39,0,0,1,160,341.33ZM21.33,320H160a32,32,0,0,0,32-32V224a32,32,0,0,0-32-32H21.33Z" transform="translate(0 -64)"/><path class="cls-1" d="M106.67,298.67A42.67,42.67,0,1,1,149.33,256,42.72,42.72,0,0,1,106.67,298.67Zm0-64A21.33,21.33,0,1,0,128,256,21.36,21.36,0,0,0,106.67,234.67Z" transform="translate(0 -64)"/></svg>