<svg id="Layer_1" data-name="Layer 1" xmlns="http://www.w3.org/2000/svg" viewBox="0 0 512 512"><defs><style>.cls-1{fill:#055755;}</style></defs><g id="Icons"><path class="cls-1" d="M444.42,67.58a55.71,55.71,0,0,0-78.78-.17l-.17.17L165.07,268.49a10.23,10.23,0,0,0-2.87,6l-8.6,72.4a10.26,10.26,0,0,0,10.24,11.47H165l73-7.58a10.23,10.23,0,0,0,6.14-3l200.3-201a56.22,56.22,0,0,0,0-79.26ZM232.24,330.65l-56.73,6,6.56-56.22L340.38,121.75l50.07,50.18ZM404.89,157.49l-50.07-50.28L379.9,81.92a36.15,36.15,0,0,1,50.18,0,35.53,35.53,0,0,1,0,50.18Z"/><path class="cls-1" d="M399.36,389.12a51.2,51.2,0,0,1-51.2,51.2H122.88a51.2,51.2,0,0,1-51.2-51.2V163.84a51.2,51.2,0,0,1,51.2-51.2h153.6V92.16H122.88A71.68,71.68,0,0,0,51.2,163.84V389.12a71.68,71.68,0,0,0,71.68,71.68H348.16a71.68,71.68,0,0,0,71.68-71.68V235.52H399.36Z"/></g></svg>