<svg id="Layer_1" data-name="Layer 1" xmlns="http://www.w3.org/2000/svg" viewBox="0 0 511.97 512.01"><defs><style>.cls-1{fill:#26b574;}</style></defs><path class="cls-1" d="M341.92,58.58c-78.11-78.1-205.23-78.1-283.34,0s-78.09,205.23,0,283.36c69.56,69.54,177.89,77,255.94,22.69A42.3,42.3,0,0,0,326,385.86L439.72,499.61a42.32,42.32,0,0,0,59.85-59.86L385.82,326a42.31,42.31,0,0,0-21.21-11.41C418.94,236.49,411.49,128.17,341.92,58.58ZM306,306c-58.32,58.32-153.22,58.32-211.51,0s-58.28-153.19,0-211.51,153.19-58.29,211.51,0S364.32,247.71,306,306Z" transform="translate(-0.02 0)"/></svg>