<?xml version="1.0"?>
<svg xmlns="http://www.w3.org/2000/svg" xmlns:xlink="http://www.w3.org/1999/xlink" xmlns:svgjs="http://svgjs.com/svgjs" version="1.1" width="512" height="512" x="0" y="0" viewBox="0 0 512 512" style="enable-background:new 0 0 512 512" xml:space="preserve" class=""><g><g xmlns="http://www.w3.org/2000/svg"><path d="m502 482.275h-25.574v-27.713h9.33c5.523 0 10-4.477 10-10v-88.266c0-5.523-4.477-10-10-10h-7.607l-6.921-22.511h13.714c5.523 0 10-4.477 10-10s-4.477-10-10-10h-19.863l-14.759-48.002c-1.291-4.197-5.168-7.061-9.559-7.061h-169.522c-4.391 0-8.268 2.864-9.559 7.061l-14.759 48.002h-19.863c-5.523 0-10 4.477-10 10s4.477 10 10 10h13.714l-6.921 22.511h-7.607c-5.523 0-10 4.477-10 10v88.266c0 5.523 4.477 10 10 10h9.33v27.713h-60.766v-192.761c62.354-14.905 108.851-71.104 108.851-137.959 0-78.206-63.625-141.83-141.83-141.83-78.204 0-141.829 63.625-141.829 141.83 0 66.855 46.497 123.055 108.851 137.959v192.761h-98.851c-5.523 0-10 4.477-10 10s4.477 10 10 10h492c5.523 0 10-4.477 10-10s-4.477-10-10-10zm-88.362-27.713v27.713h-115.276v-27.713zm-177.393-20v-68.266h239.511v68.266zm42.381-165.84h154.747l23.851 77.574h-202.448zm-258.626-117.167c0-67.177 54.652-121.83 121.83-121.83s121.83 54.653 121.83 121.83-54.653 121.83-121.83 121.83-121.83-54.653-121.83-121.83zm108.851 330.72v-189.48c4.275.39 8.604.589 12.979.589s8.704-.2 12.979-.589v189.479h-25.958zm126.724 0v-27.713h22.787v27.713zm178.063 0v-27.713h22.788v27.713z" fill="#1bbc9b" data-original="#000000" style=""/><path d="m441.67 395.7h-33.277c-5.523 0-10 4.477-10 10s4.477 10 10 10h33.277c5.523 0 10-4.477 10-10s-4.477-10-10-10z" fill="#1bbc9b" data-original="#000000" style=""/><path d="m303.606 395.7h-33.276c-5.523 0-10 4.477-10 10s4.477 10 10 10h33.276c5.523 0 10-4.477 10-10s-4.477-10-10-10z" fill="#1bbc9b" data-original="#000000" style=""/><path d="m150.396 174.906c22.562 0 40.917-18.089 40.917-40.323s-18.355-40.323-40.917-40.323h-29.919c-.084 0-.168.001-.251.003-.081.002-.162.005-.243.009-.001 0-.002 0-.002 0-2.48.121-4.723 1.146-6.406 2.753-.008.008-.016.016-.024.024-.051.049-.102.098-.152.148-.001.001-.002.002-.003.003-.013.013-.025.026-.038.039-.043.044-.086.088-.129.132-.016.016-.031.033-.046.05-.042.045-.083.089-.125.135-.009.01-.017.02-.026.029-.047.052-.093.104-.138.157-.006.007-.013.015-.019.022-.048.056-.095.112-.141.168-.004.004-.007.009-.011.013-1.261 1.547-2.068 3.479-2.219 5.592-.001.015-.002.031-.003.046-.004.065-.008.129-.011.194-.002.035-.003.07-.004.106-.002.046-.004.091-.005.137-.001.051-.002.102-.002.152 0 .029-.001.057-.001.086v107.451c0 5.523 4.477 10 10 10s10-4.477 10-10v-36.728c6.768-.034 15.367-.075 19.918-.075zm0-60.645c11.338 0 20.917 9.307 20.917 20.323s-9.579 20.323-20.917 20.323c-4.53 0-13.012.04-19.767.076-.037-6.953-.078-15.773-.078-20.399 0-3.917-.024-13.082-.044-20.323z" fill="#1bbc9b" data-original="#000000" style=""/></g></g></svg>
