<svg id="Capa_1" data-name="Capa 1" xmlns="http://www.w3.org/2000/svg" xmlns:xlink="http://www.w3.org/1999/xlink" viewBox="0 0 512 512"><defs><style>.cls-1{fill:url(#linear-gradient);}.cls-2{fill:url(#linear-gradient-2);}.cls-3{fill:url(#linear-gradient-3);}.cls-4{fill:url(#linear-gradient-4);}.cls-5{fill:url(#linear-gradient-5);}</style><linearGradient id="linear-gradient" x1="268.09" y1="14" x2="268.09" y2="508" gradientTransform="matrix(1, 0, 0, -1, 0, 514)" gradientUnits="userSpaceOnUse"><stop offset="0" stop-color="#00b59c"/><stop offset="1" stop-color="#9cffac"/></linearGradient><linearGradient id="linear-gradient-2" x1="87.18" y1="14" x2="87.18" y2="129.78" gradientTransform="matrix(1, 0, 0, -1, 0, 514)" gradientUnits="userSpaceOnUse"><stop offset="0" stop-color="#c3ffe8"/><stop offset="1" stop-color="#f0fff4"/></linearGradient><linearGradient id="linear-gradient-3" x1="288.77" y1="244.63" x2="288.77" y2="273.93" gradientTransform="matrix(1, 0, 0, 1, 0, 0)" xlink:href="#linear-gradient-2"/><linearGradient id="linear-gradient-4" x1="288.77" y1="325.75" x2="288.77" y2="355.05" gradientTransform="matrix(1, 0, 0, 1, 0, 0)" xlink:href="#linear-gradient-2"/><linearGradient id="linear-gradient-5" x1="235.05" y1="163.52" x2="235.05" y2="192.82" gradientTransform="matrix(1, 0, 0, 1, 0, 0)" xlink:href="#linear-gradient-2"/></defs><path class="cls-1" d="M438.51,6.56a14.48,14.48,0,0,0-16.26,6.24,27.66,27.66,0,0,1-23.91,13.26A27.67,27.67,0,0,1,374.43,12.8a14.47,14.47,0,0,0-24.54,0A27.67,27.67,0,0,1,326,26.06,27.66,27.66,0,0,1,302.07,12.8a14.48,14.48,0,0,0-24.55,0,27.65,27.65,0,0,1-23.9,13.26A27.66,27.66,0,0,1,229.71,12.8a14.48,14.48,0,0,0-24.55,0,27.66,27.66,0,0,1-23.91,13.26A27.67,27.67,0,0,1,157.34,12.8a14.47,14.47,0,0,0-26.74,7.67V384.22L87.18,500H376.63A72.45,72.45,0,0,0,449,427.64V20.47A14.48,14.48,0,0,0,438.51,6.56Z"/><path class="cls-2" d="M43.76,398.69v57.89a43.42,43.42,0,1,0,86.84,0V384.22H58.24a14.47,14.47,0,0,0-14.48,14.47Z"/><rect class="cls-3" x="155.94" y="244.63" width="265.65" height="29.3" rx="12.96"/><rect class="cls-4" x="155.94" y="325.75" width="265.65" height="29.3" rx="12.96"/><rect class="cls-5" x="155.94" y="163.52" width="158.22" height="29.3" rx="12.96"/></svg>