<svg id="Layer_1" enable-background="new 0 0 511.683 511.683" height="512" viewBox="0 0 511.683 511.683" width="512" xmlns="http://www.w3.org/2000/svg"><g><g><path d="m320.44 484.034h-246.101c-32.597 0-59.117-26.52-59.117-59.117s26.52-59.117 59.117-59.117h135.987c14.346 0 26.017-11.671 26.017-26.017s-11.671-26.017-26.017-26.017h-103.896c-8.3 0-9.482-7.241-9.482-15.54 0-8.3 1.182-14.516 9.482-14.516h103.895c30.919 0 56.074 25.154 56.074 56.074s-25.155 56.074-56.074 56.074h-135.986c-16.023 0-29.06 13.036-29.06 29.06s13.036 29.06 29.06 29.06h246.101c8.3 0 15.028 6.729 15.028 15.028.001 8.299-6.728 15.028-15.028 15.028z" fill="#475a61"/></g><g fill="#2d2d2d"><path d="m320.44 453.977h-214.341v30.057h214.341c8.3 0 15.028-6.729 15.028-15.028.001-8.301-6.728-15.029-15.028-15.029z"/><path d="m210.326 365.8h-104.227v30.057h104.226c30.919 0 56.074-25.154 56.074-56.074s-25.155-56.074-56.074-56.074h-103.895c-.112 0-.22.014-.331.017v30.023c.111.002.219.017.331.017h103.895c14.346 0 26.017 11.671 26.017 26.017s-11.671 26.017-26.016 26.017z"/></g><path d="m338.732 192.561 165.278 61.379c9.795 3.637 10.343 16.319.894 20.673l-165.653 76.338" fill="#ffc125"/><g><path d="m16.399 174.764 78.675 133.619c4.55 7.728 15.714 7.767 20.317.07l80.716-134.938c10.409-17.401 15.906-37.299 15.906-57.576v-4.62c0-57.144-46.041-103.186-102.832-103.18h-3.18c-58.544.007-106.001 47.468-106.001 106.013v.44c0 21.161 5.662 41.937 16.399 60.172z" fill="#ff0125"/><path d="m109.182 8.14h-3.18c-.025 0-.05.001-.075.001v306.02c3.691-.207 7.302-2.093 9.464-5.708l80.716-134.938c10.409-17.401 15.906-37.299 15.906-57.576v-4.62c.001-57.143-46.04-103.185-102.831-103.179z" fill="#be2342"/><circle cx="106.007" cy="114.316" fill="#fff" r="41.668"/><path d="m106.007 72.648c-.027 0-.053.002-.08.002v83.331c.027 0 .053.002.08.002 23.012 0 41.668-18.655 41.668-41.668 0-23.011-18.656-41.667-41.668-41.667z" fill="#fff5f5"/></g><g><path d="m327.797 461.084c-2.72-2.72-4.402-6.476-4.401-10.627v-243.197c0-8.3 6.728-15.029 15.028-15.028 8.299 0 15.029 6.728 15.028 15.028v243.197c.001 8.3-6.728 15.029-15.028 15.028-4.15.001-7.908-1.682-10.627-4.401z" fill="#475a61"/></g><circle cx="338.722" cy="465.486" fill="#0080ff" r="38.057"/></g></svg>