<svg id="Capa_1" enable-background="new 0 0 510 510" height="512" viewBox="0 0 510 510" width="512" xmlns="http://www.w3.org/2000/svg"><g><path d="m138.82 120h116.18l10 15-10 15c-15.97 0-115.398 0-131.416 0l-1.941-14.778z" fill="#9cf"/><path d="m62.309 318.467c4.589-10.979 15.386-18.467 27.691-18.467h165l10-15-10-15c-4.654 0-160.348 0-165 0-28.602 0-52.658 20.145-58.589 47.102l14.725 10.65z" fill="#9cf"/><path d="m478.589 167.102c-5.93-26.951-29.981-47.102-58.589-47.102-4.654 0-160.348 0-165 0v30h165c12.285 0 23.094 7.471 27.691 18.467l17.309 6.533z" fill="#8095ff"/><path d="m447.691 251.533c-4.589 10.979-15.387 18.467-27.691 18.467-4.654 0-160.348 0-165 0v30h165c28.605 0 52.658-20.148 58.589-47.102l-13.589-7.898z" fill="#8095ff"/><path d="m45 390-13.604 12.898c5.926 26.952 29.992 47.102 58.604 47.102h165l10-15-10-15c-4.654 0-160.348 0-165 0-12.464 0-23.101-7.623-27.639-18.334z" fill="#9cf"/><path d="m60 90c0-10.492 0-19.508 0-30h15c3.497-7.345 6.502-13.655 10-21-3.496-13.635-6.504-25.365-10-39-41.354 0-75 33.644-75 75 0 34.167 27.617 79.405 47.144 107.48 7.471 10.741 12.964 18.154 27.856 36.532 2.685-18.661 8.373-58.2 10-69.512-3.5-20.821-6.501-38.679-10-59.5-5.246 0-9.754 0-15 0z" fill="#fc6d5a"/><path d="m465 255c-24.812 0-45-20.186-45-45 0-24.812 20.185-45 45-45 24.812 0 45 20.186 45 45 0 24.812-20.185 45-45 45z" fill="#00cab0"/><path d="m45 405c-24.812 0-45-20.185-45-45 0-24.812 20.185-45 45-45 24.812 0 45 20.186 45 45 0 24.812-20.186 45-45 45z" fill="#92e993"/><path d="m75 0v60h15v30c-5.246 0-9.754 0-15 0v129.012c15.172-18.738 20.322-25.7 27.856-36.532 19.547-28.104 47.144-73.308 47.144-107.48 0-41.354-33.644-75-75-75z" fill="#e52e40"/><path d="m381 435-27.213-15c-11.841 0-87.14 0-98.787 0v30h98.787z" fill="#8095ff"/><path d="m426.213 510c-16.011 0-116.31 0-132.426 0l75-75c-9.07-9.07-65.869-65.869-75-75h132.426c9.07 9.071 65.869 65.869 75 75-9.071 9.07-65.869 65.869-75 75z" fill="#004881"/></g></svg>