<svg id="Capa_1" enable-background="new 0 0 512 512" height="512" viewBox="0 0 512 512" width="512" xmlns="http://www.w3.org/2000/svg"><g><g clip-rule="evenodd" fill-rule="evenodd"><path d="m26.939 282.548v154.714c0 13.266 10.856 24.123 24.122 24.123h22.166c0 23.811 19.303 43.115 43.114 43.115 23.839 0 43.142-19.304 43.142-43.115h46.288v-178.837l-96.375-31.72z" fill="#ec5469"/><path d="m205.772 103.683h-154.711c-13.266 0-24.122 10.857-24.122 24.151v154.714h46.288c0 23.811 19.303 43.115 43.114 43.115 23.839 0 43.142-19.304 43.142-43.115h46.288v-46.318c-23.81 0-43.114-19.304-43.114-43.115s19.303-43.143 43.114-43.143v-46.289z" fill="#60b6ff"/><path d="m205.772 282.548-34.638 88.015 34.638 90.822h154.71c13.266 0 24.122-10.857 24.122-24.123v-34.242c23.839 0 43.142-19.304 43.142-43.115 0-23.839-19.303-43.143-43.142-43.143v-34.214h-46.288c0 23.811-19.303 43.115-43.114 43.115-23.81 0-43.142-19.304-43.142-43.115z" fill="#ffc243"/><path d="m300.361 178.007 12.585 44.56 44.559-12.586c6.463 22.932 30.273 36.283 53.205 29.792 22.932-6.463 36.254-30.274 29.791-53.206l44.559-12.557-42.007-148.903c-3.6-12.784-17.007-20.296-29.763-16.696l-148.9 42.009 12.557 44.56c-22.932 6.463-36.254 30.302-29.791 53.234 6.463 22.905 30.302 36.256 53.205 29.793z" fill="#6fd7a3"/><path d="m359.802 23.491c19.814 38.069 32.456 95.839 32.456 160.525 0 19.474-1.134 38.324-3.288 56.211 6.945 1.672 14.4 1.644 21.741-.454 22.932-6.463 36.254-30.274 29.791-53.206l44.559-12.557-42.008-148.903c-3.6-12.784-17.007-20.296-29.763-16.696z" fill="#3ec3a4"/><path d="m384.604 282.548h-46.288c0 16.072-8.815 30.104-21.854 37.531 14.683 50.485 2.239 127.53-7.937 141.307h51.957c13.266 0 24.122-10.857 24.122-24.123v-34.243c23.839 0 43.142-19.304 43.142-43.115 0-23.839-19.303-43.143-43.142-43.143z" fill="#fea610"/><path d="m205.772 282.548v-46.318c-23.81 0-43.114-19.304-43.114-43.115s19.303-43.143 43.114-43.143v-46.29h-126.904c19.02 51.59 32.342 130.818 35.829 221.952.539.028 1.105.028 1.644.028 23.839 0 43.142-19.304 43.142-43.115h46.289z" fill="#23a6fe"/><path d="m205.772 282.548h-46.288c0 23.811-19.303 43.115-43.142 43.115-.539 0-1.105 0-1.644-.028.595 15.477.879 31.266.879 47.338 0 46.46-2.523 90.68-7.115 130.818 2.551.482 5.187.709 7.88.709 23.839 0 43.142-19.304 43.142-43.115h46.288z" fill="#e5374e"/></g><g><path d="m492.278 171.973-42.006-148.9c-2.284-8.11-7.61-14.858-15-19.001-7.389-4.143-15.923-5.166-24.018-2.88l-148.9 42.009c-3.986 1.124-6.306 5.267-5.183 9.252l10.674 37.876c-22.464 10.111-34.792 35.489-27.907 59.921 3.669 13.006 12.189 23.807 23.99 30.416 9.591 5.37 20.412 7.445 31.103 6.065l10.697 37.873c.541 1.914 1.819 3.535 3.556 4.506 1.736.972 3.786 1.213 5.701.673l37.865-10.695c4.417 9.86 11.845 18.008 21.44 23.378 7.648 4.279 16.081 6.459 24.61 6.459 4.623 0 9.275-.641 13.844-1.934 24.408-6.878 39.592-30.644 36.477-55.09l37.873-10.673c1.915-.54 3.537-1.818 4.51-3.554.972-1.735 1.215-3.786.674-5.701zm-53.811 7.376c-1.915.54-3.536 1.817-4.509 3.553s-1.216 3.786-.676 5.7c5.329 18.91-5.71 38.627-24.616 43.956-9.15 2.59-18.758 1.461-27.053-3.18-8.306-4.648-14.304-12.259-16.889-21.43-.54-1.915-1.818-3.538-3.555-4.51-1.13-.632-2.393-.956-3.664-.956-.684 0-1.369.093-2.039.282l-37.342 10.547-10.547-37.343c-1.126-3.985-5.269-6.305-9.255-5.18-9.147 2.582-18.759 1.442-27.066-3.209-8.306-4.651-14.301-12.252-16.882-21.4-5.333-18.924 5.705-38.654 24.607-43.981 3.987-1.124 6.308-5.266 5.184-9.253l-10.523-37.344 141.684-39.974c4.237-1.196 8.716-.655 12.609 1.528 3.894 2.184 6.699 5.729 7.898 9.987l39.971 141.683z"/><path d="m392.104 309.817v-27.269c0-4.142-3.357-7.5-7.5-7.5h-46.288c-4.142 0-7.5 3.358-7.5 7.5 0 19.638-15.976 35.615-35.614 35.615-19.654 0-35.643-15.977-35.643-35.615 0-4.142-3.357-7.5-7.5-7.5h-38.788v-38.818c0-4.142-3.357-7.5-7.5-7.5-19.637 0-35.614-15.977-35.614-35.615 0-19.653 15.976-35.643 35.614-35.643 4.143 0 7.5-3.358 7.5-7.5v-46.29c0-4.142-3.357-7.5-7.5-7.5h-154.71c-17.436 0-31.621 14.198-31.621 31.651v309.429c0 17.437 14.185 31.622 31.621 31.622h15.221c3.635 24.366 24.7 43.116 50.059 43.116 25.375 0 46.449-18.75 50.087-43.115h109.471c4.143 0 7.5-3.358 7.5-7.5s-3.357-7.5-7.5-7.5h-62.628v-163.837h31.843c3.638 24.365 24.713 43.115 50.088 43.115 25.36 0 46.424-18.75 50.059-43.115h31.843v26.714c0 4.142 3.357 7.5 7.5 7.5 19.653 0 35.642 15.989 35.642 35.643 0 19.638-15.989 35.615-35.642 35.615-4.142 0-7.5 3.358-7.5 7.5v34.243c0 9.166-7.457 16.623-16.623 16.623h-51.957c-4.143 0-7.5 3.358-7.5 7.5s3.357 7.5 7.5 7.5h51.957c17.436 0 31.622-14.186 31.622-31.622v-27.296c24.38-3.633 43.142-24.699 43.142-50.061.001-25.378-18.761-46.455-43.141-50.09zm-357.664-181.983c0-9.181 7.457-16.651 16.622-16.651h147.21v31.845c-24.364 3.637-43.113 24.713-43.113 50.088 0 25.361 18.75 46.425 43.113 50.061v31.872h-38.788c-4.143 0-7.5 3.358-7.5 7.5 0 19.638-15.989 35.615-35.642 35.615-19.637 0-35.614-15.977-35.614-35.615 0-4.142-3.357-7.5-7.5-7.5h-38.788zm125.043 326.051c-4.143 0-7.5 3.358-7.5 7.5 0 19.638-15.989 35.615-35.642 35.615-19.637 0-35.614-15.977-35.614-35.615 0-4.142-3.357-7.5-7.5-7.5h-22.166c-9.165 0-16.622-7.457-16.622-16.623v-147.214h31.843c3.635 24.365 24.699 43.115 50.059 43.115 25.375 0 46.449-18.75 50.087-43.115h31.843v163.837z"/></g></g></svg>