<?xml version="1.0"?>
<svg xmlns="http://www.w3.org/2000/svg" xmlns:xlink="http://www.w3.org/1999/xlink" xmlns:svgjs="http://svgjs.com/svgjs" version="1.1" width="512" height="512" x="0" y="0" viewBox="0 0 512 512" style="enable-background:new 0 0 512 512" xml:space="preserve" class=""><g><path xmlns="http://www.w3.org/2000/svg" d="m437.02 74.981c-48.353-48.352-112.64-74.981-181.02-74.981s-132.667 26.629-181.02 74.981c-48.351 48.352-74.98 112.639-74.98 181.019s26.629 132.667 74.98 181.019c48.353 48.352 112.64 74.981 181.02 74.981s132.667-26.629 181.02-74.981c48.351-48.352 74.98-112.639 74.98-181.019s-26.629-132.667-74.98-181.019z" fill="#ffffff" data-original="#f4ede7" style="" class=""/><path xmlns="http://www.w3.org/2000/svg" d="m437.02 74.981c-48.353-48.352-112.64-74.981-181.02-74.981v512c68.38 0 132.667-26.629 181.02-74.981 48.351-48.352 74.98-112.639 74.98-181.019s-26.629-132.667-74.98-181.019z" fill="#ffffff" data-original="#e7dedb" style="" class=""/><path xmlns="http://www.w3.org/2000/svg" d="m398.152 195.096h-81.248v-81.248c0-4.886-3.961-8.848-8.848-8.848h-104.113c-4.886 0-8.848 3.961-8.848 8.848v81.248h-81.248c-4.886 0-8.848 3.961-8.848 8.848v104.113c0 4.886 3.961 8.848 8.848 8.848h81.248v81.248c0 4.886 3.961 8.848 8.848 8.848h104.113c4.886 0 8.848-3.961 8.848-8.848v-81.248h81.248c4.886 0 8.848-3.961 8.848-8.848v-104.114c0-4.886-3.961-8.847-8.848-8.847z" fill="#ff0000" data-original="#e85260" style="" class=""/><path xmlns="http://www.w3.org/2000/svg" d="m398.152 195.096h-81.248v-81.248c0-4.886-3.961-8.848-8.848-8.848h-52.056v302h52.057c4.886 0 8.848-3.961 8.848-8.848v-81.248h81.248c4.886 0 8.848-3.961 8.848-8.848v-104.113c-.001-4.886-3.962-8.847-8.849-8.847z" fill="#ff0000" data-original="#bf2954" style="" class=""/></g></svg>
