<?xml version="1.0"?>
<svg xmlns="http://www.w3.org/2000/svg" xmlns:xlink="http://www.w3.org/1999/xlink" xmlns:svgjs="http://svgjs.com/svgjs" version="1.1" width="512" height="512" x="0" y="0" viewBox="0 0 512 512" style="enable-background:new 0 0 512 512" xml:space="preserve" class=""><g><g xmlns="http://www.w3.org/2000/svg"><path d="m288.839 469.983h-190.471c-1.378 0-2.5-1.121-2.5-2.5v-144.903c0-4.143-3.358-7.5-7.5-7.5s-7.5 3.357-7.5 7.5v144.903c0 9.649 7.851 17.5 17.5 17.5h2.583v9.517c0 9.649 7.851 17.5 17.5 17.5h33.024c9.649 0 17.5-7.851 17.5-17.5v-9.517h119.863c4.142 0 7.5-3.357 7.5-7.5s-3.357-7.5-7.499-7.5zm-134.863 24.517c0 1.379-1.122 2.5-2.5 2.5h-33.024c-1.378 0-2.5-1.121-2.5-2.5v-9.517h38.024z" fill="#1bbc9b" data-original="#000000" style=""/><path d="m413.632 0h-46.764c-4.143 0-7.5 3.357-7.5 7.5s3.357 7.5 7.5 7.5h46.764c1.379 0 2.5 1.121 2.5 2.5v217.49h-152.632v-41.602h7.085c12.406 0 22.5-11.845 22.5-26.403v-83.978c0-14.559-10.094-26.403-22.5-26.403h-7.085v-41.604h70.681c4.142 0 7.5-3.357 7.5-7.5s-3.358-7.5-7.5-7.5h-235.813c-9.649 0-17.5 7.851-17.5 17.5v272.391c0 4.143 3.358 7.5 7.5 7.5s7.5-3.357 7.5-7.5v-39.9h91.739v7.086c0 12.406 11.844 22.5 26.403 22.5h83.979c14.559 0 26.403-10.094 26.403-22.5v-7.086h91.739v217.493c0 1.379-1.121 2.5-2.5 2.5h-92.106c-4.143 0-7.5 3.357-7.5 7.5s3.357 7.5 7.5 7.5h21.499v9.517c0 9.649 7.851 17.5 17.5 17.5h33.024c9.649 0 17.5-7.851 17.5-17.5v-9.517h2.583c9.65 0 17.5-7.851 17.5-17.5v-449.984c.001-9.649-7.85-17.5-17.499-17.5zm-165.132 178.389h-7.085c-3.547 0-7.5-4.684-7.5-11.403v-83.979c0-6.72 3.953-11.403 7.5-11.403h7.085zm22.085-106.785c3.548 0 7.5 4.684 7.5 11.403v83.979c0 6.72-3.952 11.403-7.5 11.403h-7.085v-106.785zm-174.717-54.104c0-1.379 1.122-2.5 2.5-2.5h150.132v41.604h-7.085c-12.407 0-22.5 11.845-22.5 26.403v83.979c0 14.559 10.093 26.403 22.5 26.403h7.085v41.602h-152.632zm213.525 239.576c0 3.548-4.684 7.5-11.403 7.5h-83.979c-6.72 0-11.403-3.952-11.403-7.5v-7.086h106.785zm86.656 237.424c0 1.379-1.121 2.5-2.5 2.5h-33.024c-1.379 0-2.5-1.121-2.5-2.5v-9.517h38.024z" fill="#1bbc9b" data-original="#000000" style=""/><path d="m299.565 393.086 16.934-4.609c3.997-1.088 6.354-5.209 5.267-9.206-1.088-3.997-5.212-6.357-9.206-5.267l-21.173 5.763-20.283-11.603 20.283-11.604 21.173 5.763c.659.18 1.322.266 1.975.266 3.3 0 6.323-2.195 7.231-5.532 1.088-3.997-1.27-8.118-5.267-9.206l-16.934-4.609 4.609-16.935c1.088-3.996-1.27-8.118-5.267-9.206-3.991-1.086-8.118 1.271-9.206 5.267l-5.764 21.173-20.437 11.691v-23.546l15.517-15.518c2.929-2.929 2.929-7.678-.001-10.606-2.928-2.928-7.677-2.929-10.606.001l-12.41 12.411-12.41-12.41c-2.928-2.929-7.677-2.93-10.606-.001s-2.929 7.678 0 10.606l15.516 15.517v23.547l-20.438-11.692-5.764-21.174c-1.089-3.997-5.212-6.355-9.207-5.267-3.997 1.088-6.355 5.21-5.267 9.206l4.61 16.935-16.934 4.609c-3.997 1.088-6.355 5.209-5.267 9.206.909 3.338 3.932 5.532 7.232 5.532.652 0 1.315-.086 1.974-.266l21.173-5.763 20.283 11.604-20.283 11.603-21.173-5.763c-3.996-1.085-8.118 1.27-9.206 5.267s1.271 8.118 5.267 9.206l16.934 4.609-4.61 16.935c-1.088 3.996 1.27 8.118 5.267 9.206.66.18 1.322.266 1.974.266 3.3 0 6.324-2.195 7.232-5.532l5.764-21.174 20.438-11.692v23.546l-15.516 15.516c-2.929 2.93-2.929 7.678 0 10.607 2.929 2.928 7.678 2.928 10.606 0l12.41-12.41 12.409 12.41c1.465 1.464 3.385 2.196 5.304 2.196s3.839-.732 5.304-2.196c2.929-2.93 2.929-7.678 0-10.607l-15.516-15.516v-23.545l20.438 11.692 5.764 21.173c.908 3.338 3.932 5.532 7.232 5.532.652 0 1.315-.086 1.975-.266 3.997-1.088 6.354-5.21 5.267-9.206z" fill="#1bbc9b" data-original="#000000" style=""/></g></g></svg>
