<svg id="Capa_1" data-name="Capa 1" xmlns="http://www.w3.org/2000/svg" viewBox="0 0 512 512"><defs><style>.cls-1{fill:#055755;}</style></defs><path class="cls-1" d="M402.35,331a88.86,88.86,0,0,0-71.52,36.13L191.25,295.84a89,89,0,0,0-2.89-58.42l146.29-87.9a88.59,88.59,0,1,0-15.21-25.44L172.78,212.19a88.92,88.92,0,1,0,5.45,110.29L317.41,393.6A88.93,88.93,0,1,0,402.35,331Zm0-298.4a59.29,59.29,0,1,1-59.29,59.29A59.36,59.36,0,0,1,402.35,32.64ZM105.93,330.05a59.29,59.29,0,1,1,59.28-59.28A59.35,59.35,0,0,1,105.93,330.05Zm296.42,149.2A59.29,59.29,0,1,1,461.63,420,59.36,59.36,0,0,1,402.35,479.25Z"/></svg>