<svg id="Layer_1" data-name="Layer 1" xmlns="http://www.w3.org/2000/svg" viewBox="0 0 512 512"><defs><style>.cls-1{fill:#055755;}</style></defs><path class="cls-1" d="M436.59,234.12h0V105c0-30.69-25.14-56-55.83-56h-6.95V40.2a39.65,39.65,0,1,0-79.3,0V49H149.13V40.2a40.2,40.2,0,1,0-80.4,0V49h-6C32,49,7.06,74.3,7.06,105V401.5c0,30.69,25,56.05,55.67,56.05H237.39A151.85,151.85,0,0,0,353.65,512c83.38,0,151.29-67.93,151.29-151.3C504.94,307.85,477.34,261.16,436.59,234.12ZM316.54,40.2A17.38,17.38,0,0,1,333.6,22.52h.46a17.53,17.53,0,0,1,17.72,17.35V83.09H316.54Zm-225.78,0a17.87,17.87,0,0,1,18.06-17.68h.05c9.91,0,18.24,7.77,18.24,17.68V83.09H90.76ZM29.09,105c0-18.54,15.09-34,33.64-34h6V94.57c0,6.08,5.08,10.55,11.17,10.55h57.95c6.08,0,11.28-4.47,11.28-10.55V71H294.51V94.57a10.27,10.27,0,0,0,10,10.55H363A10.42,10.42,0,0,0,373.8,95.05c0-.16,0-.32,0-.48V71h6.95a34.15,34.15,0,0,1,33.8,34v35.38H29.09ZM62.73,435.53c-18.55,0-33.64-15.48-33.64-34V162.39H414.56v59.75a151.39,151.39,0,0,0-60.82-12.75c-83.37,0-151.25,68-151.25,151.41a151.05,151.05,0,0,0,19.65,74.73Zm290.92,54.25A129.18,129.18,0,1,1,482.83,360.6h0A129.33,129.33,0,0,1,353.65,489.78Z"/><path class="cls-1" d="M405.54,360.64H357.29V294.37a11,11,0,1,0-22,0v77.27a11.21,11.21,0,0,0,11.22,11h59.06a11,11,0,1,0,0-22Z"/></svg>